<svg version="1.1" id="Layer_1" xmlns="http://www.w3.org/2000/svg" xmlns:xlink="http://www.w3.org/1999/xlink" x="0px" y="0px"
	 viewBox="0 0 27 24" enable-background="new 0 0 27 24" xml:space="preserve" width="27" height="24">
	<g id="icon-camera" >
		<path d="M18.5,8.1c-0.8,0-1.5,0-1.5,0L16.4,7c-0.2-0.2-0.7-0.5-1-0.5h-3.7c-0.3,0-0.8,0.3-1,0.5l-0.5,1.1
			c0,0-0.8,0-1.6,0C7.3,8.1,7,9.3,7,9.3v7.6c0,0,0.8,1.1,1.6,1.1s8.9,0,9.8,0s1.6-1.1,1.6-1.1V9.3C20.2,9.3,19.8,8.1,18.5,8.1z
			 M13.5,16.2c-1.8,0-3.2-1.5-3.2-3.2s1.5-3.2,3.2-3.2s3.2,1.5,3.2,3.2S15.4,16.2,13.5,16.2z M13.5,10.9c-1.1,0-2.1,1-2.1,2.1
			s1,2.3,2.1,2.3s2.3-1,2.3-2.3S14.8,10.9,13.5,10.9z"/>
	</g>
</svg>
